Coordinates
version=1
nRows=21
nColumns=12
inDegrees=yes

Units are S.I. units (second, meters, Newtons, ...)
Angles are in degrees

endheader
time	SC_y	SC_z	SC_x	AC_y	AC_z	AC_x	GH_y	GH_z	GH_yy	EL_x	PS_y
       0.0              -51.03          23.07          73.35          36.98          6.153          6.683          -90.8          87.11          61.15          59.39          121.5
   0.04386              -51.03          23.07          73.35          36.98          6.152          6.683          -90.8          87.09          61.15          59.39          121.5
   0.08771              -51.03          23.07          73.35          36.98          6.151          6.683          -90.8          87.08          61.16          59.39          121.5
    0.1316              -51.03          23.07          73.35          36.98          6.149          6.683          -90.8          87.07          61.16          59.38          121.5
    0.1754              -51.03          23.07          73.36          36.98          6.148          6.683          -90.8          87.05          61.17          59.38          121.5
    0.2193              -51.02          23.08          73.36          36.98          6.146          6.684          -90.8          87.04          61.17          59.37          121.5
    0.2631              -51.02          23.08          73.36          36.98          6.144          6.684          -90.8          87.02          61.17          59.37          121.5
     0.307              -51.02          23.08          73.36          36.98          6.142          6.684          -90.8           87.0          61.18          59.37          121.5
    0.3508              -51.01          23.08          73.37          36.98          6.141          6.684          -90.8          86.98          61.18          59.36          121.5
    0.3947              -51.01          23.08          73.37          36.98          6.138          6.684          -90.8          86.96          61.19          59.36          121.5
    0.4386              -51.01          23.09          73.37          36.97          6.136          6.685          -90.8          86.94           61.2          59.35          121.5
    0.4824               -51.0          23.09          73.37          36.97          6.134          6.685          -90.8          86.92           61.2          59.34          121.5
    0.5263               -51.0          23.09          73.38          36.97          6.131          6.685          -90.8          86.89          61.21          59.34          121.5
    0.5701               -51.0          23.09          73.38          36.97          6.128          6.686          -90.8          86.86          61.22          59.33          121.5
     0.614              -50.99           23.1          73.39          36.97          6.125          6.686          -90.8          86.83          61.23          59.32          121.5
    0.6578              -50.99           23.1          73.39          36.97          6.122          6.687          -90.8           86.8          61.24          59.31          121.5
    0.7017              -50.98           23.1          73.39          36.97          6.118          6.687          -90.8          86.77          61.25          59.31          121.5
    0.7455              -50.98          23.11           73.4          36.97          6.114          6.688          -90.8          86.73          61.26           59.3          121.5
    0.7894              -50.97          23.11           73.4          36.97           6.11          6.688          -90.8          86.68          61.27          59.28          121.5
    0.8333              -50.96          23.12          73.41          36.96          6.105          6.689          -90.8          86.64          61.28          59.27          121.5
    0.8771              -50.96          23.12          73.42          36.96            6.1          6.689          -90.8          86.59           61.3          59.26          121.5
